<svg width="168" height="40" viewBox="0 0 168 40" fill="none" xmlns="http://www.w3.org/2000/svg">
<rect x="0.5" y="0.5" width="167" height="39" rx="7.5" stroke="#A7A7A7"/>
<path d="M15.8295 17.9545C15.7784 17.5227 15.571 17.1875 15.2074 16.9489C14.8438 16.7102 14.3977 16.5909 13.8693 16.5909C13.483 16.5909 13.1449 16.6534 12.8551 16.7784C12.5682 16.9034 12.3438 17.0753 12.1818 17.294C12.0227 17.5128 11.9432 17.7614 11.9432 18.0398C11.9432 18.2727 11.9986 18.473 12.1094 18.6406C12.223 18.8054 12.3679 18.9432 12.544 19.054C12.7202 19.1619 12.9048 19.2514 13.098 19.3224C13.2912 19.3906 13.4688 19.446 13.6307 19.4886L14.517 19.7273C14.7443 19.7869 14.9972 19.8693 15.2756 19.9744C15.5568 20.0795 15.8253 20.223 16.081 20.4048C16.3395 20.5838 16.5526 20.8139 16.7202 21.0952C16.8878 21.3764 16.9716 21.7216 16.9716 22.1307C16.9716 22.6023 16.848 23.0284 16.6009 23.4091C16.3565 23.7898 15.9986 24.0923 15.527 24.3168C15.0582 24.5412 14.4886 24.6534 13.8182 24.6534C13.1932 24.6534 12.652 24.5526 12.1946 24.3509C11.7401 24.1491 11.3821 23.8679 11.1207 23.5071C10.8622 23.1463 10.7159 22.7273 10.6818 22.25H11.7727C11.8011 22.5795 11.9119 22.8523 12.1051 23.0682C12.3011 23.2812 12.5483 23.4403 12.8466 23.5455C13.1477 23.6477 13.4716 23.6989 13.8182 23.6989C14.2216 23.6989 14.5838 23.6335 14.9048 23.5028C15.2259 23.3693 15.4801 23.1847 15.6676 22.9489C15.8551 22.7102 15.9489 22.4318 15.9489 22.1136C15.9489 21.8239 15.8679 21.5881 15.706 21.4062C15.544 21.2244 15.331 21.0767 15.0668 20.9631C14.8026 20.8494 14.517 20.75 14.2102 20.6648L13.1364 20.358C12.4545 20.1619 11.9148 19.8821 11.517 19.5185C11.1193 19.1548 10.9205 18.679 10.9205 18.0909C10.9205 17.6023 11.0526 17.1761 11.3168 16.8125C11.5838 16.446 11.9418 16.1619 12.3906 15.9602C12.8423 15.7557 13.3466 15.6534 13.9034 15.6534C14.4659 15.6534 14.9659 15.7543 15.4034 15.956C15.8409 16.1548 16.1875 16.4276 16.4432 16.7741C16.7017 17.1207 16.8381 17.5142 16.8523 17.9545H15.8295ZM21.3171 24.6364C20.6864 24.6364 20.1424 24.4972 19.685 24.2188C19.2305 23.9375 18.8796 23.5455 18.6325 23.0426C18.3881 22.5369 18.266 21.9489 18.266 21.2784C18.266 20.608 18.3881 20.017 18.6325 19.5057C18.8796 18.9915 19.2234 18.5909 19.6637 18.304C20.1069 18.0142 20.6239 17.8693 21.2148 17.8693C21.5558 17.8693 21.8924 17.9261 22.2248 18.0398C22.5572 18.1534 22.8597 18.3381 23.1325 18.5938C23.4052 18.8466 23.6225 19.1818 23.7844 19.5994C23.9464 20.017 24.0273 20.5312 24.0273 21.142V21.5682H18.9819V20.6989H23.0046C23.0046 20.3295 22.9308 20 22.783 19.7102C22.6381 19.4205 22.4308 19.1918 22.1609 19.0241C21.8938 18.8565 21.5785 18.7727 21.2148 18.7727C20.8143 18.7727 20.4677 18.8722 20.1751 19.071C19.8853 19.267 19.6623 19.5227 19.506 19.8381C19.3498 20.1534 19.2717 20.4915 19.2717 20.8523V21.4318C19.2717 21.9261 19.3569 22.3452 19.5273 22.6889C19.7006 23.0298 19.9407 23.2898 20.2475 23.4688C20.5543 23.6449 20.9109 23.733 21.3171 23.733C21.5813 23.733 21.82 23.696 22.033 23.6222C22.2489 23.5455 22.435 23.4318 22.5913 23.2812C22.7475 23.1278 22.8683 22.9375 22.9535 22.7102L23.9251 22.983C23.8228 23.3125 23.6509 23.6023 23.4094 23.8523C23.168 24.0994 22.8697 24.2926 22.5146 24.4318C22.1594 24.5682 21.7603 24.6364 21.3171 24.6364ZM27.4833 24.6534C27.0685 24.6534 26.6921 24.5753 26.354 24.419C26.016 24.2599 25.7475 24.0312 25.5487 23.733C25.3498 23.4318 25.2504 23.0682 25.2504 22.642C25.2504 22.267 25.3242 21.9631 25.4719 21.7301C25.6197 21.4943 25.8171 21.3097 26.0643 21.1761C26.3114 21.0426 26.5842 20.9432 26.8825 20.8778C27.1836 20.8097 27.4862 20.7557 27.7901 20.7159C28.1879 20.6648 28.5103 20.6264 28.7575 20.6009C29.0075 20.5724 29.1893 20.5256 29.3029 20.4602C29.4194 20.3949 29.4776 20.2812 29.4776 20.1193V20.0852C29.4776 19.6648 29.3626 19.3381 29.1325 19.1051C28.9052 18.8722 28.56 18.7557 28.0969 18.7557C27.6168 18.7557 27.2404 18.8608 26.9677 19.071C26.695 19.2812 26.5032 19.5057 26.3924 19.7443L25.4379 19.4034C25.6083 19.0057 25.8356 18.696 26.1197 18.4744C26.4066 18.25 26.7191 18.0937 27.0572 18.0057C27.3981 17.9148 27.7333 17.8693 28.0629 17.8693C28.2731 17.8693 28.5146 17.8949 28.7873 17.946C29.0629 17.9943 29.3285 18.0952 29.5842 18.2486C29.8427 18.402 30.0572 18.6335 30.2276 18.9432C30.3981 19.2528 30.4833 19.6676 30.4833 20.1875V24.5H29.4776V23.6136H29.4265C29.3583 23.7557 29.2447 23.9077 29.0856 24.0696C28.9265 24.2315 28.7148 24.3693 28.4506 24.483C28.1864 24.5966 27.864 24.6534 27.4833 24.6534ZM27.6367 23.75C28.0344 23.75 28.3697 23.6719 28.6424 23.5156C28.918 23.3594 29.1254 23.1577 29.2646 22.9105C29.4066 22.6634 29.4776 22.4034 29.4776 22.1307V21.2102C29.435 21.2614 29.3413 21.3082 29.1964 21.3509C29.0543 21.3906 28.8896 21.4261 28.7021 21.4574C28.5174 21.4858 28.337 21.5114 28.1609 21.5341C27.9876 21.554 27.8469 21.571 27.739 21.5852C27.4776 21.6193 27.2333 21.6747 27.006 21.7514C26.7816 21.8253 26.5998 21.9375 26.4606 22.0881C26.3242 22.2358 26.256 22.4375 26.256 22.6932C26.256 23.0426 26.3853 23.3068 26.6438 23.4858C26.9052 23.6619 27.2362 23.75 27.6367 23.75ZM32.3189 24.5V17.9545H33.2905V18.9432H33.3587C33.478 18.6193 33.6939 18.3565 34.0064 18.1548C34.3189 17.9531 34.6712 17.8523 35.0632 17.8523C35.1371 17.8523 35.2294 17.8537 35.3402 17.8565C35.451 17.8594 35.5348 17.8636 35.5916 17.8693V18.892C35.5575 18.8835 35.4794 18.8707 35.3572 18.8537C35.2379 18.8338 35.1115 18.8239 34.978 18.8239C34.6598 18.8239 34.3757 18.8906 34.1257 19.0241C33.8786 19.1548 33.6825 19.3366 33.5376 19.5696C33.3956 19.7997 33.3246 20.0625 33.3246 20.358V24.5H32.3189ZM39.2436 24.6364C38.63 24.6364 38.1016 24.4915 37.6584 24.2017C37.2152 23.9119 36.8743 23.5128 36.6357 23.0043C36.397 22.4957 36.2777 21.9148 36.2777 21.2614C36.2777 20.5966 36.3999 20.0099 36.6442 19.5014C36.8913 18.9901 37.2351 18.5909 37.6754 18.304C38.1186 18.0142 38.6357 17.8693 39.2266 17.8693C39.6868 17.8693 40.1016 17.9545 40.4709 18.125C40.8402 18.2955 41.1428 18.5341 41.3786 18.8409C41.6143 19.1477 41.7607 19.5057 41.8175 19.9148H40.8118C40.7351 19.6165 40.5646 19.3523 40.3004 19.1222C40.0391 18.8892 39.6868 18.7727 39.2436 18.7727C38.8516 18.7727 38.5078 18.875 38.2124 19.0795C37.9197 19.2812 37.6911 19.5668 37.5263 19.9361C37.3643 20.3026 37.2834 20.733 37.2834 21.2273C37.2834 21.733 37.3629 22.1733 37.522 22.5483C37.6839 22.9233 37.9112 23.2145 38.2038 23.4219C38.4993 23.6293 38.8459 23.733 39.2436 23.733C39.505 23.733 39.7422 23.6875 39.9553 23.5966C40.1683 23.5057 40.3487 23.375 40.4964 23.2045C40.6442 23.0341 40.7493 22.8295 40.8118 22.5909H41.8175C41.7607 22.9773 41.62 23.3253 41.3956 23.6349C41.174 23.9418 40.88 24.1861 40.5135 24.3679C40.1499 24.5469 39.7266 24.6364 39.2436 24.6364ZM44.2933 20.5625V24.5H43.2876V15.7727H44.2933V18.9773H44.3786C44.532 18.6392 44.7621 18.3707 45.0689 18.1719C45.3786 17.9702 45.7905 17.8693 46.3047 17.8693C46.7507 17.8693 47.1413 17.9588 47.4766 18.1378C47.8118 18.3139 48.0717 18.5852 48.2564 18.9517C48.4439 19.3153 48.5376 19.7784 48.5376 20.3409V24.5H47.532V20.4091C47.532 19.8892 47.397 19.4872 47.1271 19.2031C46.8601 18.9162 46.4893 18.7727 46.0149 18.7727C45.6854 18.7727 45.3899 18.8423 45.1286 18.9815C44.87 19.1207 44.6655 19.3239 44.5149 19.5909C44.3672 19.858 44.2933 20.1818 44.2933 20.5625Z" fill="#646464"/>
<path d="M149.5 22H148.71L148.43 21.73C149.444 20.554 150.001 19.0527 150 17.5C150 16.2144 149.619 14.9577 148.905 13.8888C148.19 12.8199 147.175 11.9868 145.987 11.4948C144.8 11.0028 143.493 10.8741 142.232 11.1249C140.971 11.3757 139.813 11.9948 138.904 12.9038C137.995 13.8128 137.376 14.971 137.125 16.2319C136.874 17.4928 137.003 18.7997 137.495 19.9874C137.987 21.1752 138.82 22.1903 139.889 22.9046C140.958 23.6188 142.214 24 143.5 24C145.11 24 146.59 23.41 147.73 22.43L148 22.71V23.5L153 28.49L154.49 27L149.5 22ZM143.5 22C141.01 22 139 19.99 139 17.5C139 15.01 141.01 13 143.5 13C145.99 13 148 15.01 148 17.5C148 19.99 145.99 22 143.5 22Z" fill="#222222"/>
</svg>
